<?xml version="1.0" encoding="UTF-8"?>
<svg id="Layer_1" xmlns="http://www.w3.org/2000/svg" width="40" height="40" xmlns:xlink="http://www.w3.org/1999/xlink" viewBox="0 0 40 40">
  <defs>
    <style>
      .cls-1 {
        fill: url(#radial-gradient-3);
      }

      .cls-2 {
        fill: url(#radial-gradient-2);
      }

      .cls-3 {
        fill: url(#radial-gradient);
      }

      .cls-4 {
        fill: #354809;
      }

      .cls-5 {
        fill: #f1ebe4;
      }
    </style>
    <radialGradient id="radial-gradient" cx="-217.55" cy="282.45" fx="-217.55" fy="282.45" r="1" gradientTransform="translate(-5629 4371) rotate(90) scale(20 -20)" gradientUnits="userSpaceOnUse">
      <stop offset="0" stop-color="#cda48e"/>
      <stop offset="1" stop-color="#ab5211"/>
    </radialGradient>
    <radialGradient id="radial-gradient-2" cx="-217.55" cy="282.45" fx="-217.55" fy="282.45" r="1" gradientTransform="translate(-5629 4371) rotate(90) scale(20 -20)" gradientUnits="userSpaceOnUse">
      <stop offset="0" stop-color="#d8bfa1"/>
      <stop offset="1" stop-color="#69422b"/>
    </radialGradient>
    <radialGradient id="radial-gradient-3" cx="-217.55" cy="282.45" fx="-217.55" fy="282.45" r="1" gradientTransform="translate(-5629 4371) rotate(90) scale(20 -20)" gradientUnits="userSpaceOnUse">
      <stop offset="0" stop-color="#e9d9b2"/>
      <stop offset="1" stop-color="#e6b434"/>
    </radialGradient>
  </defs>
  <rect class="cls-4" width="40" height="40" rx="10" ry="10"/>
  <rect class="cls-3" width="40" height="40" rx="10" ry="10"/>
  <rect class="cls-2" width="40" height="40" rx="10" ry="10"/>
  <rect class="cls-1" width="40" height="40" rx="10" ry="10"/>
  <path class="cls-5" d="M28.2,23.4c1.04,1.39,1.26,2.9.65,4.53-.6,1.63-1.8,2.7-3.59,3.21-.86.24-1.73.25-2.62.03-.89-.22-1.62-.65-2.19-1.27-2.07.92-4.01.88-5.82-.14-1.82-1.01-2.91-2.66-3.28-4.94-.9-.22-1.67-.65-2.31-1.3-.63-.65-1.09-1.47-1.37-2.45-.45-1.58-.09-3.07,1.07-4.45,1.16-1.38,2.52-1.98,4.05-1.8l2.7.33c.29-.95.79-1.8,1.51-2.55.71-.75,1.56-1.29,2.53-1.62l-.57-2.03c-.1-.34-.06-.65.09-.93.16-.28.41-.47.74-.57.34-.1.65-.06.93.09.28.16.47.41.57.74l.66,2.34c1.04.01,1.96.24,2.76.67.8.43,1.57,1.13,2.32,2.1l2.26-.64c.34-.1.65-.06.93.09.28.16.47.41.57.74.1.34.06.65-.09.93-.16.28-.41.47-.74.57l-2.03.57c.23,1,.22,2-.01,2.99-.24.99-.68,1.86-1.34,2.61l1.62,2.15ZM18.81,27.07c-.2-.7-.33-1.4-.4-2.09-.07-.7-.08-1.39-.02-2.08-.52.45-1.1.84-1.76,1.15s-1.33.54-2.02.68c.29,1.01.81,1.73,1.56,2.15.75.42,1.63.48,2.64.2ZM14.11,21.5c.83-.24,1.53-.55,2.11-.94.58-.39,1.28-1.04,2.12-1.95l-5.23-.62c-.84-.1-1.48.09-1.92.57-.44.48-.56,1.06-.36,1.76.19.68.55,1.11,1.08,1.29.53.19,1.26.15,2.2-.12ZM24.38,28.02c.65-.18,1.11-.56,1.38-1.13.27-.57.24-1.07-.11-1.5l-3.61-4.7c-.26.97-.4,1.91-.44,2.82-.04.91.04,1.7.23,2.38.24.86.58,1.47,1.01,1.84.43.37.94.47,1.54.3ZM24.5,18.64c.19-.33.3-.74.33-1.21.03-.47-.01-.94-.15-1.41-.24-.83-.71-1.45-1.41-1.87-.71-.42-1.46-.51-2.27-.28-.47.13-.89.34-1.26.61s-.66.59-.86.96l3.44.54,2.19,2.66Z"/>
</svg>